# xmcd
#
# Track frame offsets: 
#        150
#        14550
#        29348
#        47709
#        59651
#        68720
#        85701
#        96485
#        101491
#        111361
#        127972
#        141336
#        152709
#        163531
#        177770
#        192669
#        207082
#        222987
#        233884
#        258395
#
# Disc length: 4321 seconds
#
# Revision: 0
# Processed by: cddbd v1.5.2PL0 Copyright (c) Steve Scherf et al.
# Submitted via: ExactAudioCopyFreeDBPlugin 1.0
#
DISCID=2410df14
DTITLE=The Jesus and Mary Chain - Darklands (2011 Expanded Edition - CD2
DTITLE=)
DYEAR=1987
DGENRE=Indie
TTITLE0=Kill Surf City
TTITLE1=Bo Diddley Is Jesus
TTITLE2=Who Do You Love
TTITLE3=Everything's Alright When You're Down
TTITLE4=Shake
TTITLE5=Happy When It Rains (Demo)
TTITLE6=Happy Place
TTITLE7=F.Hole
TTITLE8=Rider
TTITLE9=On The Wall (Portastudio Demo)
TTITLE10=Surfin' USA (April Outtake)
TTITLE11=Here It Comes Again
TTITLE12=Walk And Crawl
TTITLE13=Some Candy Talking (NME Version)
TTITLE14=Mushroom
TTITLE15=The Hardest Walk (Soundtrack Version)
TTITLE16=Don't Ever Change
TTITLE17=Swing
TTITLE18=Darklands (With Strings)
TTITLE19=Interview (Janice Long)
EXTD=
EXTT0=
EXTT1=
EXTT2=
EXTT3=
EXTT4=
EXTT5=
EXTT6=
EXTT7=
EXTT8=
EXTT9=
EXTT10=
EXTT11=
EXTT12=
EXTT13=
EXTT14=
EXTT15=
EXTT16=
EXTT17=
EXTT18=
EXTT19=
PLAYORDER=
